<?xml version="1.0" encoding="UTF-8"?>
<svg  viewBox="0 0 72 72" version="1.1" xmlns="http://www.w3.org/2000/svg" xmlns:xlink="http://www.w3.org/1999/xlink">
    <!-- Generator: Sketch 49.2 (51160) - http://www.bohemiancoding.com/sketch -->
    <title>Twitter</title>
    <desc>Created with Sketch.</desc>
    <defs></defs>
    <g id="Page-1" stroke="none" stroke-width="1" fill="none" fill-rule="evenodd">
        <g id="Social-Icons---Rounded" transform="translate(-264.000000, -43.000000)">
            <g id="Twitter" transform="translate(264.000000, 43.000000)">
                <path d="M8,72 L64,72 C68.418278,72 72,68.418278 72,64 L72,8 C72,3.581722 68.418278,-8.11624501e-16 64,0 L8,0 C3.581722,8.11624501e-16 -5.41083001e-16,3.581722 0,8 L0,64 C5.41083001e-16,68.418278 3.581722,72 8,72 Z" id="Rounded" fill="#4DC8F1"></path>
                <path d="M55.0865399,25.7148754 C55.7080938,39.5659738 45.3799204,55.0092879 27.0953855,55.0092879 C21.5344243,55.0092879 16.3579537,53.3781513 12,50.5841073 C17.2236474,51.1997641 22.4390388,49.7514374 26.5787999,46.505676 C22.2703818,46.4266549 18.6330532,43.5795371 17.3805101,39.6674038 C18.9231903,39.9622586 20.4411028,39.876161 21.8269202,39.4999263 C17.090373,38.5469556 13.8222026,34.2809966 13.9283503,29.7190034 C15.2563762,30.4561404 16.7754681,30.8996019 18.3900929,30.9491375 C14.0038331,28.0194604 12.7619048,22.2285125 15.3424738,17.8021524 C20.1981424,23.7605779 27.4539289,27.6809671 35.6390977,28.0925844 C34.2037447,21.9312988 38.8766033,16 45.232493,16 C48.0654578,16 50.6247973,17.1947516 52.4198732,19.1089488 C54.6631284,18.6678461 56.7707504,17.8481498 58.6731535,16.7194457 C57.9383754,19.019313 56.3768244,20.9500221 54.3435058,22.1671827 C56.3355447,21.9301194 58.2332301,21.4005602 60,20.6174259 C58.68023,22.592953 57.0101725,24.3266991 55.0865399,25.7148754" fill="#FFFFFF"></path>
            </g>
        </g>
    </g>
</svg>