<?xml version="1.0" encoding="utf-8"?>
<!-- Generator: Adobe Illustrator 19.2.0, SVG Export Plug-In . SVG Version: 6.00 Build 0)  -->
<svg version="1.1" id="Layer_1" xmlns="http://www.w3.org/2000/svg" xmlns:xlink="http://www.w3.org/1999/xlink" x="0px" y="0px"
	 width="56.693px" height="56.693px" viewBox="0 0 56.693 56.693" style="enable-background:new 0 0 56.693 56.693;"
	 xml:space="preserve">
<path d="M54.082,15.5495c-1.8115,0.8047-3.7597,1.3477-5.8051,1.5913c2.0874-1.25,3.6894-3.2305,4.4443-5.5918
	c-1.9531,1.1587-4.1152,2-6.418,2.4536c-1.8432-1.9643-4.4702-3.1919-7.3769-3.1919c-5.5816,0-10.1069,4.5254-10.1069,10.107
	c0,0.792,0.0893,1.563,0.2617,2.3027c-8.3999-0.4209-15.8477-4.4443-20.8325-10.5596c-0.8697,1.4922-1.3682,3.2281-1.3682,5.0811
	c0,3.5063,1.7842,6.5996,4.4961,8.4126c-1.6563-0.0532-3.2154-0.5073-4.5777-1.2647c-0.0009,0.042-0.0009,0.0845-0.0009,0.128
	c0,4.896,3.4839,8.9809,8.1079,9.9101c-0.8482,0.2305-1.7412,0.3545-2.6631,0.3545c-0.6519,0-1.2847-0.063-1.9019-0.1816
	c1.2867,4.0151,5.0191,6.9375,9.441,7.019c-3.459,2.711-7.8165,4.3267-12.5523,4.3267c-0.8154,0-1.6196-0.0484-2.4106-0.1411
	c4.4736,2.8681,9.7856,4.541,15.4931,4.541c18.5908,0,28.7559-15.4009,28.7559-28.7569c0-0.4375-0.0088-0.8745-0.0283-1.3076
	C51.0137,19.3571,52.728,17.5769,54.082,15.5495z"/>
</svg>
